<svg xmlns="http://www.w3.org/2000/svg" width="48" height="48" fill="none"><mask id="i5e5111-mask0_56017_40862" width="30" height="40" x="9" y="4" maskUnits="userSpaceOnUse" style="mask-type:alpha"><path fill="#fff" d="M25.667 5.667c0-.92.746-1.667 1.666-1.667h10C38.253 4 39 4.746 39 5.667v36.665c0 .92-.746 1.667-1.667 1.667H10.667c-.92 0-1.667-.746-1.667-1.667V25.666c0-.92.747-1.666 1.667-1.666h6.667v-8.334c0-.92.746-1.666 1.666-1.666h6.667z"/></mask><g mask="url(#i5e5111-mask0_56017_40862)"><path fill="url(#i5e5111-paint0_linear_56017_40862)" d="M39 4v39.999H25.667V4z"/><g filter="url(#i5e5111-filter0_dd_56017_40862)"><path fill="url(#i5e5111-paint1_linear_56017_40862)" d="M30.667 15.666V44H17.334v-30H29c.92 0 1.667.747 1.667 1.667"/></g><path fill="url(#i5e5111-paint2_linear_56017_40862)" d="M9 24v19.999h13.334V25.666c0-.92-.747-1.666-1.667-1.666z"/></g><defs><filter id="i5e5111-filter0_dd_56017_40862" width="19.999" height="36.666" x="14.001" y="11.5" color-interpolation-filters="sRGB" filterUnits="userSpaceOnUse"><feFlood flood-opacity="0" result="BackgroundImageFix"/><feColorMatrix in="SourceAlpha" result="hardAlpha" values="0 0 0 0 0 0 0 0 0 0 0 0 0 0 0 0 0 0 127 0"/><feOffset dy=".158"/><feGaussianBlur stdDeviation=".158"/><feColorMatrix values="0 0 0 0 0 0 0 0 0 0 0 0 0 0 0 0 0 0 0.2 0"/><feBlend in2="BackgroundImageFix" result="effect1_dropShadow_56017_40862"/><feColorMatrix in="SourceAlpha" result="hardAlpha" values="0 0 0 0 0 0 0 0 0 0 0 0 0 0 0 0 0 0 127 0"/><feOffset dy=".833"/><feGaussianBlur stdDeviation="1.667"/><feColorMatrix values="0 0 0 0 0 0 0 0 0 0 0 0 0 0 0 0 0 0 0.18 0"/><feBlend in2="effect1_dropShadow_56017_40862" result="effect2_dropShadow_56017_40862"/><feBlend in="SourceGraphic" in2="effect2_dropShadow_56017_40862" result="shape"/></filter><linearGradient id="i5e5111-paint0_linear_56017_40862" x1="23.445" x2="41.027" y1="4" y2="41.268" gradientUnits="userSpaceOnUse"><stop stop-color="#E6AD10"/><stop offset="1" stop-color="#C87E0E"/></linearGradient><linearGradient id="i5e5111-paint1_linear_56017_40862" x1="17.333" x2="32.119" y1="14" y2="42.677" gradientUnits="userSpaceOnUse"><stop stop-color="#F6D751"/><stop offset="1" stop-color="#E6AD10"/></linearGradient><linearGradient id="i5e5111-paint2_linear_56017_40862" x1="8.999" x2="17.17" y1="24" y2="43.365" gradientUnits="userSpaceOnUse"><stop stop-color="#F9E589"/><stop offset="1" stop-color="#F6D751"/></linearGradient></defs></svg>